<?xml version="1.0" ?><svg id="Layer_1" style="enable-background:new 0 0 128 128;" version="1.1" viewBox="0 0 128 128" xml:space="preserve" xmlns="http://www.w3.org/2000/svg" xmlns:xlink="http://www.w3.org/1999/xlink"><style type="text/css">
	.st0{fill:#CBD2D8;stroke:#31352E;stroke-width:6;stroke-miterlimit:10;}
	.st1{fill:#F4F4F4;}
	.st2{fill:#E6E5E3;}
	.st3{fill:#F41C1C;}
	.st4{fill:#F94141;}
	.st5{fill:#EEAF4B;}
	.st6{fill:#FFE2BB;}
	.st7{fill:none;stroke:#FFE000;stroke-width:6;stroke-linecap:round;stroke-miterlimit:10;}
	.st8{fill:#EFEFEF;}
	.st9{fill:#EAB242;}
	.st10{fill:#39AF17;}
	.st11{fill:#5BC936;}
	.st12{fill:#672570;}
	.st13{fill:#D4E2E8;}
	.st14{fill:#BAC8CC;}
	.st15{fill:#FFFFFF;}
	.st16{fill:#EDEDED;}
	.st17{fill:#C1402B;}
	.st18{fill:#CC5650;}
	.st19{fill:#D8D8D8;}
	.st20{fill:#B53426;}
	.st21{fill:#E33834;}
	.st22{fill:#FFE9ED;}
	.st23{fill:#E5E5E5;}
	.st24{fill:#DBDBDB;}
	.st25{fill:#FCCF97;}
	.st26{fill:#EDA977;}
	.st27{fill:none;stroke:#31352E;stroke-width:6;stroke-miterlimit:10;}
	.st28{fill:#FFDEB3;}
	.st29{fill:none;}
	.st30{fill:#F9CE05;}
	.st31{fill:#E5AD00;}
	.st32{fill:#A6CE39;}
	.st33{fill:#B00E3D;}
	.st34{fill:#9E0035;}
	.st35{fill:#F1EDE1;}
	.st36{fill:#94DDBC;}
	.st37{fill:#FFAD65;}
	.st38{fill:#FA4A73;}
	.st39{fill:#FFD2A0;}
	.st40{fill:#FC89AB;}
	.st41{fill:#E2E2E2;}
	.st42{fill:#FFFBD6;}
	.st43{fill:#EF271D;}
	.st44{fill:#FF3E3E;}
	.st45{fill:#D31C18;}
	.st46{fill:none;stroke:#31352E;stroke-width:6;stroke-linejoin:round;stroke-miterlimit:10;}
	.st47{fill:#C1D83C;}
	.st48{fill:#EB4675;}
	.st49{fill:#FEBD1C;}
	.st50{fill:#EBF440;}
	.st51{fill:#FF5F94;}
	.st52{fill:#FFC84D;}
	.st53{fill:#E0E0E0;}
	.st54{fill:#FFA617;}
	.st55{fill:#CA5231;}
	.st56{fill:#EC733E;}
	.st57{fill:#5F5E63;}
	.st58{fill:#EA9344;}
	.st59{fill:#F8CA75;}
	.st60{fill:#CECECE;}
	.st61{fill:#B5B5B5;}
	.st62{fill:#DFE7EF;}
	.st63{fill:#DD6262;}
	.st64{fill:#D0D7DD;}
	.st65{fill:#F7F7F7;}
	.st66{fill:#BFC0BC;}
	.st67{fill:none;stroke:#31352E;stroke-width:3;stroke-miterlimit:10;}
	.st68{fill:#D5F3F5;}
	.st69{fill:#FECF17;}
	.st70{fill:#56E81A;stroke:#31352E;stroke-width:6;stroke-miterlimit:10;}
	.st71{fill:#FF1A1A;stroke:#31352E;stroke-width:6;stroke-miterlimit:10;}
	.st72{fill:#FEDF19;}
	.st73{fill:#FFB000;}
	.st74{fill:#D73646;}
	.st75{fill:#BFAE9E;}
	.st76{fill:none;stroke:#31352E;stroke-width:6;stroke-linecap:round;stroke-miterlimit:10;}
	.st77{fill:#DB588A;}
	.st78{fill:#F4B3C8;}
	.st79{fill:#FCE1ED;}
	.st80{fill:#F1709C;}
	.st81{fill:none;stroke:#FCE1ED;stroke-width:4;stroke-linecap:round;stroke-miterlimit:10;}
	.st82{fill:none;stroke:#F26322;stroke-width:4;stroke-linecap:round;stroke-miterlimit:10;}
	.st83{fill:none;stroke:#00A1E0;stroke-width:4;stroke-linecap:round;stroke-miterlimit:10;}
	.st84{fill:none;stroke:#00DD1A;stroke-width:4;stroke-linecap:round;stroke-miterlimit:10;}
	.st85{fill:none;stroke:#FFCF01;stroke-width:4;stroke-linecap:round;stroke-miterlimit:10;}
	.st86{fill:#E6EAF0;}
	.st87{fill:#892E2E;}
	.st88{fill:#722828;}
	.st89{fill:#A04B4B;}
	.st90{fill:none;stroke:#31352E;stroke-width:6;stroke-linecap:round;stroke-linejoin:round;stroke-miterlimit:10;}
	.st91{fill:#31352E;}
	.st92{fill:#FEE04E;}
	.st93{fill:#FBBF13;}
	.st94{fill:#EDAC0A;}
	.st95{fill:#FFF3C0;}
	.st96{fill:#FD9011;}
	.st97{fill:#B24610;}
	.st98{fill:#FFDA40;}
	.st99{fill:#7EA322;}
	.st100{fill:#722706;}
	.st101{fill:#872F10;}
	.st102{fill:#E00E28;}
	.st103{fill:#C4622C;}
	.st104{fill:#B5592C;}
	.st105{fill:#DB995D;}
	.st106{fill:#FFADBD;}
	.st107{fill:#FFDCE4;}
	.st108{fill:none;stroke:#28B573;stroke-width:4;stroke-linecap:round;stroke-miterlimit:10;}
	.st109{fill:none;stroke:#EA1A70;stroke-width:4;stroke-linecap:round;stroke-miterlimit:10;}
	.st110{fill:none;stroke:#F5911B;stroke-width:4;stroke-linecap:round;stroke-miterlimit:10;}
	.st111{fill:none;stroke:#21AAE1;stroke-width:5;stroke-linecap:round;stroke-miterlimit:10;}
	.st112{fill:#FF40AF;}
	.st113{fill:#F462A5;}
	.st114{fill:#EF377E;}
	.st115{fill:#ACE600;}
	.st116{fill:#A6D109;}
	.st117{fill:none;stroke:#00A1E0;stroke-width:6;stroke-linecap:round;stroke-miterlimit:10;}
	.st118{fill:none;stroke:#FFCF01;stroke-width:6;stroke-linecap:round;stroke-miterlimit:10;}
	.st119{fill:none;stroke:#FCE1ED;stroke-width:6;stroke-linecap:round;stroke-miterlimit:10;}
	.st120{fill:none;stroke:#00DD1A;stroke-width:6;stroke-linecap:round;stroke-miterlimit:10;}
	.st121{fill:#7F7E82;}
	.st122{fill:#E2EAED;}
	.st123{fill:#EDE6EE;}
	.st124{fill:#F7B369;}
	.st125{fill:#DD934A;}
	.st126{fill:#D1D1D1;}
	.st127{fill:#FBC415;}
	.st128{fill:#F7A81B;}
	.st129{fill:#F9E400;}
	.st130{fill:#E15D23;}
	.st131{fill:#17CE3A;}
	.st132{fill:#E23030;}
	.st133{fill:#FF4848;}
	.st134{fill:#C62222;}
	.st135{fill:#41F25F;}
	.st136{fill:#18B22A;}
	.st137{fill:#EF8800;}
	.st138{fill:#FF8B00;}
	.st139{opacity:0.5;fill:#FFFFFF;}
	.st140{fill:#DE2A1B;}
	.st141{fill:#C92017;}
	.st142{fill:#FEFEFE;}
	.st143{fill:#B27028;}
	.st144{fill:#DD9757;}
	.st145{fill:#E0AF74;}
	.st146{fill:#F9C68F;}
	.st147{fill:#B05526;}
	.st148{fill:#CA6D2A;}
	.st149{fill:#F49513;}
	.st150{fill:#FFC98F;}
	.st151{fill:#94C2D9;}
	.st152{fill:#BFDCE8;}
	.st153{fill:none;stroke:#CD9356;stroke-width:6;stroke-linecap:round;stroke-linejoin:round;stroke-miterlimit:10;}
	.st154{fill:#FECC6D;}
	.st155{fill:#FFDEA9;}
	.st156{fill:#EDA551;}
	.st157{fill:none;stroke:#FFDD29;stroke-width:6;stroke-linecap:round;stroke-miterlimit:10;}
	.st158{fill:#ED2524;}
	.st159{fill:#FF6C6C;}
	.st160{fill:#676566;}
	.st161{fill:#7A7A7A;}
	.st162{fill:#9B9B9B;}
	.st163{fill:#239B02;}
	.st164{fill:#1F7C00;}
	.st165{fill:#34B515;}
	.st166{fill:#4AC927;}
	.st167{fill:#B9E256;}
	.st168{fill:#A4C12B;}
	.st169{fill:#E5B577;}
	.st170{fill:#FCCE9A;}
	.st171{fill:none;stroke:#4C2619;stroke-width:6;stroke-linecap:round;stroke-miterlimit:10;}
	.st172{fill:#40CC8C;}
	.st173{fill:#D10F19;stroke:#31352E;stroke-width:6;stroke-miterlimit:10;}
	.st174{fill:#FECF87;}
	.st175{fill:#FEA956;}
	.st176{fill:#21C134;}
	.st177{fill:#BA0909;}
	.st178{fill:#FFCE00;}
	.st179{fill:#FEC311;}
	.st180{fill:#FFD939;}
	.st181{fill:#FFE783;}
	.st182{fill:#FFB600;}
	.st183{fill:#E3FF7D;}
	.st184{fill:#BC2B5B;}
	.st185{fill:#FFDB2D;}
	.st186{fill:#FFE473;}
	.st187{fill:#92CC06;}
	.st188{fill:#C9EF3F;}
	.st189{fill:#EBEBEB;}
	.st190{fill:#C6C6C6;}
	.st191{fill:#EAEAEA;}
	.st192{fill:#FBB434;}
	.st193{fill:#EFA022;}
	.st194{fill:#FFD188;}
	.st195{fill:#E5E8ED;}
	.st196{fill:#84C123;}
	.st197{fill:#6F9321;}
	.st198{fill:#57B540;}
	.st199{fill:#88DD6C;}
	.st200{fill:#B8E26F;}
	.st201{fill:none;stroke:#30342D;stroke-width:6;stroke-miterlimit:10;}
	.st202{fill:#CE1320;}
	.st203{fill:#ED3B4D;}
	.st204{fill:#F9DAB7;}
	.st205{fill:#D2A15E;}
	.st206{fill:#E2AE6F;}
	.st207{fill:#FFCA3E;}
	.st208{fill:#727272;}
	.st209{fill:#965930;}
	.st210{fill:#894E27;}
	.st211{fill:#FFBA6E;}
	.st212{fill:#FFE5D2;}
	.st213{fill:#FFE200;}
	.st214{fill:#FFF186;}
	.st215{fill:#CA9C0A;}
	.st216{fill:#DCDCDC;}
	.st217{fill:#C1C1C1;}
	.st218{fill:#247016;}
	.st219{fill:#381938;}
	.st220{fill:#AC68B1;}
	.st221{fill:#D1D1D3;}
	.st222{fill:#F19118;}
	.st223{fill:#E2670A;}
	.st224{fill:#F3C647;}
	.st225{fill:#D18F39;}
	.st226{fill:#F9D58C;}
	.st227{fill:#E44D30;}
	.st228{fill:#DD4531;}
	.st229{fill:#FE9960;}
	.st230{fill:#DDDDDD;}
	.st231{fill:#F4BD42;}
	.st232{fill:#EDA921;}
	.st233{fill:#FFD071;}
	.st234{fill:#E01212;}
	.st235{fill:#B3BE22;}
	.st236{fill:#EB5F3E;}
	.st237{fill:#FF7D6C;}
	.st238{fill:#BE4F31;}
</style><path class="st202" d="M35.5,5.3c8.3,6.4-3.6,13.5-3.6,13.5c-1.6-1.5-3.6-2.4-5.9-2.4c-3.5,0-5.7,1.1-7.1,2.6  c-4.7,0.2-12-5.1-7.3-11.6c3.5-4.9,8.8-2.7,11.1-1.5c0.7,0.4,1.5,0.4,2.1,0C26.9,4.7,31.7,2.4,35.5,5.3z"/><g><path class="st203" d="M16.1,7.8c1.1-1.5,3.3-2.3,4.6-2.7c-2.6-1-6.4-1.4-9.1,2.4c-4.7,6.5,2.6,11.8,7.3,11.6   c0.3-0.3,0.6-0.6,0.9-0.8C16.4,16.3,12.8,12.3,16.1,7.8z"/></g><path class="st204" d="M98.8,75.3c0,0-12.3,23.7-30.9,24.6c-18.6,0.9-34.3-10-35-24.2s12.8-15.3,18-15.5  C69.6,59.2,98.8,75.3,98.8,75.3z"/><path class="st205" d="M18.9,19c1.5-1.5,3.7-2.6,7.1-2.6c2.3,0,4.3,1,5.9,2.4c1.7,1.5,3,3.6,3.7,5.6C43.9,46,56.4,49.2,56.4,49.2  s31.3,10.8,57.5-22c0,0,2.4,11.4-4.8,22.7c0,0,8-1.3,13.3-6.4c0,0,8.4,22.5-12.3,36.5c0,0-23,61-80.3,16  c-19.3-15.2-5.4-41.7-8.4-49.8c-2.8-7.7-4.6-12-4.6-12l-9.1-4.2l8.6-5.6C16.2,24.3,16,21.9,18.9,19z"/><g><g><g><path class="st206" d="M35.4,93.8c-19.3-15.2-2.5-30-2.5-48c0-7.8-9.8-11.7-11-15.3c-1.3-3.7-1.1-7.8,0.4-11.5l0,0L7.7,29.9     l9.1,4.2c0,0,1.8,4.4,4.6,12c2.9,8.1-10.9,34.7,8.4,49.8C54,115.1,72.2,115.1,85,108.8C72.7,112.5,56.3,110.2,35.4,93.8z"/></g></g></g><path class="st207" d="M16.7,34.1c1.5-1.1,2.3-1.8,2.3-1.8l-0.3-6.7l-2.5-1.3l-8.6,5.6L16.7,34.1z"/><path class="st91" d="M25.1,22.1c1.7,0,3,1.3,3,3c0,1.6-1.3,3-3,3c-1.6,0-3-1.4-3-3C22.1,23.4,23.5,22.1,25.1,22.1z"/><path class="st208" d="M22.9,23.4c0.2-0.5,0.8-0.7,1.2-0.5c0.5,0.2,0.7,0.8,0.5,1.2c-0.2,0.5-0.8,0.7-1.2,0.5  C22.9,24.4,22.7,23.8,22.9,23.4z"/><path class="st209" d="M97.4,73.8c0,0-10.9,25.2-29.6,26.1c-18.6,0.9-34.3-10-35-24.2s12.8-15.3,18-15.5  C69.6,59.2,97.4,73.8,97.4,73.8z"/><path class="st210" d="M97.9,76.7c0-1-0.2-2-0.5-2.9c-1.2,3.7-4.7,6.4-8.8,6.4c-4.1,0-7.6-2.7-8.8-6.4c-0.3,0.9-0.5,1.9-0.5,2.9  c0,4.5,3.2,8.2,7.4,9.1c-1.9,1.5-4.4,2.5-7,2.5c-5,0-9.2-3.3-10.7-7.8c-0.4,1.1-0.6,2.3-0.6,3.5c0,4.1,2.2,7.7,5.5,9.7  c-2.5,0.5-5.3,0.4-7.9-0.5C59.8,90.9,56,85,56.1,78.8c-0.9,1.2-1.7,2.6-2.2,4.1c-1.2,3.3-1.1,6.8,0,9.9c-8-3.7-13.4-10.1-13.7-17.9  C39.5,62.2,51.5,61.3,56.2,61c2.6-0.1,5.4,0.1,8.3,0.6c-4.7-1.1-9.4-1.7-13.5-1.6c-5.3,0.3-18.7,1.3-18,15.5  c0.6,11.6,11.9,21.1,25.5,23.6c1.3,1.1,2.9,2,4.6,2.6c6.9,2.4,14.4-0.5,17.9-6.7c5.1-0.5,9.1-4.5,9.9-9.5  C94.8,84.7,97.9,81.1,97.9,76.7z"/><path class="st76" d="M16.2,24.3l-8.6,5.6l9.1,4.2c0,0,1.8,4.4,4.6,12c2.9,8.1-10.9,34.7,8.4,49.8C87,141,110,80,110,80  c20.8-14,12.3-36.5,12.3-36.5c-5.3,5.1-13.3,6.4-13.3,6.4c7.2-11.4,4.8-22.7,4.8-22.7c-26.2,32.8-57.5,22-57.5,22S43.9,46,35.6,24.4  c-0.8-2-2-4-3.7-5.6c-1.6-1.5-3.6-2.4-5.9-2.4C17.2,16.4,16.2,24.3,16.2,24.3z"/><path class="st27" d="M19.3,19c-0.1,0-0.3,0-0.4,0c-4.7,0.2-12-5.1-7.3-11.6c3.5-4.9,8.8-2.7,11.1-1.5c0.7,0.4,1.5,0.4,2.1,0  c2.1-1.3,7-3.5,10.8-0.6c8.3,6.4-3.6,13.5-3.6,13.5"/><line class="st76" x1="64" x2="64" y1="113" y2="121"/><line class="st76" x1="63.7" x2="49" y1="121" y2="125"/><line class="st76" x1="63.7" x2="73" y1="121" y2="125"/></svg>