<?xml version="1.0" ?><svg id="Layer_1" style="enable-background:new 0 0 128 128;" version="1.1" viewBox="0 0 128 128" xml:space="preserve" xmlns="http://www.w3.org/2000/svg" xmlns:xlink="http://www.w3.org/1999/xlink"><style type="text/css">
	.st0{fill:#DEDBCA;}
	.st1{fill:#FFD939;}
	.st2{fill:#FEEB9D;}
	.st3{fill:#FFEEA4;}
	.st4{fill:#FEF6D2;}
	.st5{fill:#F2F2F2;}
	.st6{fill:#E0E0E0;}
	.st7{fill:#CE3E3E;}
	.st8{fill:#E74A4A;}
	.st9{fill:#E8864F;}
	.st10{fill:none;stroke:#31352E;stroke-width:6;stroke-miterlimit:10;}
	.st11{fill:#FFFFFF;}
	.st12{fill:none;stroke:#31352E;stroke-width:6;stroke-linejoin:round;stroke-miterlimit:10;}
	.st13{fill:#FFE36E;}
	.st14{fill:#FDC00F;}
	.st15{fill:#FFFAE6;}
	.st16{fill:#42B6E3;}
	.st17{fill:#5ACCF9;}
	.st18{fill:#299FCE;}
	.st19{fill:#E74C3C;}
	.st20{fill:#EFEFE7;}
	.st21{fill:#CE4741;}
	.st22{fill:#FFFB78;}
	.st23{fill:#FFFDD2;}
	.st24{fill:#F9C215;}
	.st25{fill:#FF7B02;}
	.st26{fill:#00A8FF;}
	.st27{fill:#CE9549;}
	.st28{fill:#A06E4B;}
	.st29{fill:#8BCF1B;}
	.st30{fill:#9ED830;}
	.st31{fill:#00ADF1;}
	.st32{fill:#21C2F4;}
	.st33{fill:#00558C;}
	.st34{fill:#0071BD;}
	.st35{fill:#FFD4A1;}
	.st36{fill:#FEC159;}
	.st37{fill:#E5E5E5;}
	.st38{fill:#FFBD5D;}
	.st39{fill:#FFC880;}
	.st40{fill:#E8A656;}
	.st41{fill:#C7ECFF;}
	.st42{fill:#B3D7E2;}
	.st43{fill:#FFD876;}
	.st44{fill:#F8C120;}
	.st45{fill:none;}
	.st46{fill:#72D2FC;}
	.st47{fill:#0CA8FD;}
	.st48{fill:#FFB380;}
	.st49{fill:#FF7A0B;}
	.st50{fill:#B0E05C;}
	.st51{fill:#8CD717;}
	.st52{fill:#1CA5F9;}
	.st53{fill:#26C0F9;}
	.st54{fill:#A5F40B;}
	.st55{fill:#BEF623;}
	.st56{fill:#1B8DD2;}
	.st57{fill:#D6D6D6;}
	.st58{fill:#FECB00;}
	.st59{fill:#E86D1A;}
	.st60{fill:#43C1F9;}
	.st61{fill:#E8B31F;}
	.st62{fill:#ABC0C9;}
	.st63{fill:#ECF3FD;}
	.st64{fill:#EB5D55;}
	.st65{fill:#F4F4F4;}
	.st66{fill:#C7EEFF;}
	.st67{fill:#B8E5F4;}
	.st68{fill:#EDEBDF;}
	.st69{fill:#D8984C;}
	.st70{fill:#E2E2E2;}
	.st71{fill:#31352E;}
	.st72{fill:none;stroke:#31352E;stroke-width:6;stroke-linecap:round;stroke-linejoin:round;stroke-miterlimit:10;}
	.st73{fill:#DBDBDB;}
	.st74{fill:none;stroke:#31352E;stroke-width:6;stroke-linecap:round;stroke-miterlimit:10;}
	.st75{fill:#B6CCD3;}
	.st76{fill:#6BC5FC;}
	.st77{fill:#B7B7B7;}
	.st78{fill:#AAAAAA;}
	.st79{fill:#999999;}
	.st80{fill:#EAAC81;}
	.st81{fill:#CD8338;}
	.st82{fill:none;stroke:#30342D;stroke-width:6;stroke-miterlimit:10;}
	.st83{fill:#E24C3E;}
	.st84{fill:none;stroke:#FFFFFF;stroke-width:6;stroke-linecap:round;stroke-miterlimit:10;}
	.st85{fill:#D83A32;}
	.st86{fill:#EFEFEF;}
	.st87{fill:none;stroke:#31352E;stroke-width:3;stroke-linecap:round;stroke-miterlimit:10;}
	.st88{fill:#EDEDED;}
	.st89{fill:#D1D1D1;}
	.st90{fill:#2980B9;}
	.st91{fill:#3498DB;}
	.st92{fill:#71B6E5;}
	.st93{fill:#DEDEDE;}
	.st94{fill:#35A4CD;}
	.st95{fill:#43B5E5;}
	.st96{fill:#92CBEC;}
	.st97{fill:#BA342D;}
	.st98{fill:#BDC3C7;}
	.st99{fill:#ECF0F1;}
	.st100{fill:#F47A7A;}
	.st101{fill:#EAEAEA;}
	.st102{fill:#B2B2B2;}
	.st103{fill:#EF6159;}
	.st104{fill:#C1C1C1;}
	.st105{fill:#EA6A68;}
	.st106{fill:none;stroke:#31352E;stroke-width:6;stroke-linecap:round;stroke-miterlimit:10;stroke-dasharray:0,8.6667;}
	.st107{fill:none;stroke:#31352E;stroke-width:6;stroke-linecap:round;stroke-miterlimit:10;stroke-dasharray:0,9.3333;}
	.st108{fill:none;stroke:#31352E;stroke-width:6;stroke-linecap:round;stroke-miterlimit:10;stroke-dasharray:0,9.2857;}
	.st109{fill:none;stroke:#31352E;stroke-width:6;stroke-linecap:round;stroke-miterlimit:10;stroke-dasharray:0,9.8333;}
	.st110{fill:none;stroke:#31352E;stroke-width:6;stroke-linecap:round;stroke-miterlimit:10;stroke-dasharray:0,9.5;}
	.st111{fill:none;stroke:#31352E;stroke-width:6;stroke-linecap:round;stroke-miterlimit:10;stroke-dasharray:0,8.75;}
	.st112{fill:#AF4438;}
	.st113{fill:#C0C1BF;}
	.st114{fill:#89D2F7;}
	.st115{fill:#30342D;}
	.st116{fill:#34B6F7;}
	.st117{fill:#FFE027;}
	.st118{fill:#FF9D00;}
	.st119{fill:#CFCED4;}
	.st120{fill:#8ED800;}
	.st121{fill:#D5D6D4;}
	.st122{fill:#FFE08A;}
	.st123{fill:#FFDD88;}
	.st124{fill:#96DB00;}
	.st125{fill:#FFBC00;}
	.st126{fill:#D80909;}
	.st127{fill:#91D807;}
	.st128{fill:#0CB0C1;}
	.st129{fill:#FFB41F;}
	.st130{fill:#F99615;}
	.st131{fill:#FCD430;}
	.st132{fill:#FAB63A;}
	.st133{fill:#E03D3D;}
	.st134{fill:#BF3737;}
	.st135{fill:#DD7C07;}
	.st136{fill:#E27171;}
	.st137{fill:#FFFF29;}
	.st138{fill:#C9C9C9;}
</style><path class="st5" d="M118,59v10c0,2.8-2.2,5-5,5h-4.4c-3.4,0-6.5,2.1-7.8,5.3c0,0,0,0.1,0,0.1  c-1.3,3.1-0.6,6.8,1.9,9.2l3,3c2,2,2,5.1,0,7.1l-7,7c-1.9,2-5.1,1.9-7.1,0l-3-3c-2.4-2.4-6.1-3.2-9.2-1.9c0,0-0.1,0-0.1,0  c-3.2,1.3-5.3,4.4-5.3,7.8v4.4c0,2.8-2.2,5-5,5H59c-2.8,0-5-2.2-5-5v-4.4c0-3.4-2.1-6.5-5.3-7.8c0,0-0.1,0-0.1,0  c-3.1-1.3-6.8-0.6-9.2,1.9l-3,3c-2,2-5.1,2-7.1,0l-7-7c-2-1.9-2-5.1,0-7.1l3-3c2.4-2.4,3.2-6.1,1.9-9.2c0,0,0-0.1,0-0.1  c-1.3-3.2-4.4-5.3-7.8-5.3H15c-2.8,0-5-2.2-5-5V59c0-2.8,2.2-5,5-5h4.4c3.4,0,6.5-2.1,7.8-5.3c0,0,0-0.1,0-0.1  c1.3-3.1,0.6-6.8-1.9-9.2l-3-3c-2-2-2-5.1,0-7.1l7-7c2-2,5.1-2,7.1,0l3,3c2.4,2.4,6.1,3.2,9.2,1.9c0,0,0.1,0,0.1,0  c3.2-1.3,5.3-4.4,5.3-7.8V15c0-2.8,2.2-5,5-5h10c2.8,0,5,2.2,5,5v4.4c0,3.4,2.1,6.5,5.3,7.8c0,0,0.1,0,0.1,0  c3.1,1.3,6.8,0.6,9.2-1.9l3-3c2-2,5.1-2,7.1,0l7,7c1.9,2,1.9,5.1,0,7.1l-3,3c-2.4,2.4-3.2,6.1-1.9,9.2c0,0,0,0.1,0,0.1  c1.3,3.2,4.4,5.3,7.8,5.3h4.4C115.8,54,118,56.2,118,59z M79,64c0-8.3-6.7-15-15-15s-15,6.7-15,15s6.7,15,15,15S79,72.3,79,64z" id="XMLID_520_"/><path class="st70" d="M61,112c-0.6,0-1-0.4-1-1v-2.4c0-5.8-3.5-11.1-8.9-13.4c-1.8-0.8-3.7-1.2-5.6-1.2  c-3.8,0-7.5,1.6-10.3,4.3l-1.6,1.6c-0.4,0.4-1,0.4-1.4,0L28,95.9c-0.4-0.4-0.4-1,0-1.4l1.6-1.6c4.2-4.2,5.4-10.4,3.1-15.8l-0.1-0.1  c-2.3-5.4-7.5-8.9-13.3-8.9H17c-0.6,0-1-0.4-1-1v-6c0-0.6,0.4-1,1-1h2.4c5.8,0,11.1-3.5,13.4-8.9c2.3-5.5,1.1-11.7-3.1-15.9L28,33.6  c-0.4-0.4-0.4-1,0-1.4l4.1-4.1c0.4-0.4,1-0.4,1.4,0l1.6,1.6c2.7,2.7,6.4,4.3,10.2,4.3c1.9,0,3.8-0.4,5.6-1.1l0.1-0.1  c5.4-2.3,8.9-7.5,8.9-13.3V17c0-0.6,0.4-1,1-1h6c0.6,0,1,0.4,1,1v2.4c0,5.8,3.5,11.1,8.9,13.4l0.1,0c1.8,0.8,3.6,1.1,5.6,1.1  c3.8,0,7.5-1.6,10.3-4.3l1.6-1.6c0.4-0.4,1-0.4,1.4,0l4.1,4.1c0.4,0.4,0.4,1,0,1.4l-1.6,1.6c-4.2,4.2-5.4,10.4-3.1,15.8l0.1,0.1  c2.3,5.4,7.5,8.9,13.3,8.9h2.4c0.6,0,1,0.4,1,1v6c0,0.6-0.4,1-1,1h-2.4c-5.8,0-11.1,3.5-13.4,8.9c-2.3,5.5-1.1,11.7,3.1,15.9  l1.6,1.6c0.4,0.4,0.4,1,0,1.4l-4.1,4.1c-0.4,0.4-1,0.4-1.4,0l-1.6-1.6c-2.7-2.7-6.4-4.3-10.2-4.3c-1.9,0-3.8,0.4-5.6,1.1  c-5.5,2.3-9,7.6-9,13.4v2.4c0,0.6-0.4,1-1,1H61z M64,43c-11.6,0-21,9.4-21,21c0,11.6,9.4,21,21,21c11.6,0,21-9.4,21-21  C85,52.4,75.6,43,64,43z" id="XMLID_499_"/><path class="st10" d="M79,64c0,8.3-6.7,15-15,15s-15-6.7-15-15s6.7-15,15-15S79,55.7,79,64z" id="XMLID_518_"/><path class="st10" d="M118,69V59c0-2.8-2.2-5-5-5h-4.4c-3.4,0-6.5-2.1-7.8-5.3c0,0,0-0.1,0-0.1  c-1.3-3.1-0.6-6.8,1.9-9.2l3-3c1.9-2,1.9-5.1,0-7.1l-7-7c-2-2-5.1-2-7.1,0l-3,3c-2.4,2.4-6.1,3.2-9.2,1.9c0,0-0.1,0-0.1,0  c-3.2-1.3-5.3-4.4-5.3-7.8V15c0-2.8-2.2-5-5-5H59c-2.8,0-5,2.2-5,5v4.4c0,3.4-2.1,6.5-5.3,7.8c0,0-0.1,0-0.1,0  c-3.1,1.3-6.8,0.6-9.2-1.9l-3-3c-2-2-5.1-2-7.1,0l-7,7c-2,2-2,5.1,0,7.1l3,3c2.4,2.4,3.2,6.1,1.9,9.2c0,0,0,0.1,0,0.1  c-1.3,3.2-4.4,5.3-7.8,5.3H15c-2.8,0-5,2.2-5,5v10c0,2.8,2.2,5,5,5h4.4c3.4,0,6.5,2.1,7.8,5.3c0,0,0,0.1,0,0.1  c1.3,3.1,0.6,6.8-1.9,9.2l-3,3c-2,1.9-2,5.1,0,7.1l7,7c2,1.9,5.1,1.9,7.1,0l3-3c2.4-2.4,6.1-3.2,9.2-1.9c0,0,0.1,0,0.1,0  c3.2,1.3,5.3,4.4,5.3,7.8v4.4c0,2.8,2.2,5,5,5h10c2.8,0,5-2.2,5-5v-4.4c0-3.4,2.1-6.5,5.3-7.8c0,0,0.1,0,0.1,0  c3.1-1.3,6.8-0.6,9.2,1.9l3,3c1.9,1.9,5.1,2,7.1,0l7-7c1.9-2,1.9-5.1,0-7.1l-3-3c-2.4-2.4-3.2-6.1-1.9-9.2c0,0,0-0.1,0-0.1  c1.3-3.2,4.4-5.3,7.8-5.3h4.4C115.8,74,118,71.8,118,69z" id="XMLID_517_"/></svg>