<?xml version="1.0" ?><svg id="Layer_1" style="enable-background:new 0 0 128 128;" version="1.1" viewBox="0 0 128 128" xml:space="preserve" xmlns="http://www.w3.org/2000/svg" xmlns:xlink="http://www.w3.org/1999/xlink"><style type="text/css">
	.st0{fill:#E8833F;}
	.st1{fill:#606463;}
	.st2{fill:#757777;}
	.st3{fill:#828282;}
	.st4{fill:#919191;}
	.st5{fill:#F4CECE;}
	.st6{fill:#FAD8D7;}
	.st7{fill:#FFE3E0;}
	.st8{fill:#E92B37;}
	.st9{fill:none;stroke:#31352E;stroke-width:6;stroke-linecap:round;stroke-linejoin:round;stroke-miterlimit:10;}
	.st10{fill:#EBD5AC;}
	.st11{fill:#E8C89A;}
	.st12{fill:#E4BA88;}
	.st13{fill:#F9BDBD;}
	.st14{fill:#EE5953;}
	.st15{fill:#DCDCDE;}
	.st16{fill:#BABABA;}
	.st17{fill:#C1C2C6;}
	.st18{fill:#EDEDEE;}
	.st19{fill:#CACACB;}
	.st20{fill:#FFFFFF;}
	.st21{fill:#F2F2F2;}
	.st22{fill:#FE930E;}
	.st23{fill:#FF6501;}
	.st24{fill:#EEEDEE;}
	.st25{fill:#F5F5F5;}
	.st26{fill:#DDDDDD;}
	.st27{fill:none;stroke:#31352E;stroke-width:6;stroke-miterlimit:10;}
	.st28{fill:#EAEAEA;}
	.st29{fill:#F8F8F8;}
	.st30{fill:#D3D3D3;}
	.st31{fill:#A85848;}
	.st32{fill:#C47169;}
	.st33{fill:#21BDD6;}
	.st34{fill:#1FACC7;}
	.st35{fill:#FFFCFB;}
	.st36{fill:#ED2626;}
	.st37{fill:#EA6565;}
	.st38{fill:#71BA38;}
	.st39{fill:#91CC52;}
	.st40{fill:#D1D2D4;}
	.st41{fill:#E8E8EA;}
	.st42{fill:#E4F2F4;}
	.st43{fill:#D91C00;}
	.st44{fill:#C41F0E;}
	.st45{fill:#DDC692;}
	.st46{fill:#CCB483;}
	.st47{fill:#F1F1F1;}
	.st48{fill:#D1C89F;}
	.st49{fill:#E5D8A5;}
	.st50{fill:#FCBF27;}
	.st51{fill:none;stroke:#FDE46C;stroke-width:6;stroke-linecap:round;stroke-miterlimit:10;}
	.st52{fill:#D7EDF2;}
	.st53{fill:#97918F;}
	.st54{fill:#874239;}
	.st55{fill:#934B45;}
	.st56{fill:#6BC935;}
	.st57{fill:#8CDD58;}
	.st58{fill:#BA6735;}
	.st59{fill:#A95829;}
	.st60{fill:#F2E0B8;}
	.st61{fill:#A81647;}
	.st62{fill:#8344AA;}
	.st63{fill:#E8D2A3;}
	.st64{fill:#68478E;}
	.st65{fill:#F8E2B3;}
	.st66{fill:#F7EAD0;}
	.st67{fill:#F9E6B9;}
	.st68{fill:#EFCC9A;}
	.st69{fill:none;stroke:#CD9356;stroke-width:6;stroke-linecap:round;stroke-linejoin:round;stroke-miterlimit:10;}
	.st70{fill:#E6E6E6;}
	.st71{fill:#F4F4F4;}
	.st72{fill:#FFFCD9;}
	.st73{fill:#FAD841;}
	.st74{fill:#FFEEA6;}
	.st75{fill:#474747;}
	.st76{fill:#B7B7B7;}
	.st77{fill:#FFC560;}
	.st78{fill:#FEFEC0;}
	.st79{fill:#ECB65C;}
	.st80{fill:#E3A24E;}
	.st81{fill:#EDEDED;}
	.st82{fill:#D38E44;}
	.st83{fill:#FFF5CC;}
	.st84{fill:#F7B369;}
	.st85{fill:#F8BD83;}
	.st86{fill:#EFAA70;}
	.st87{fill:none;stroke:#31352E;stroke-width:6;stroke-linecap:round;stroke-miterlimit:10;}
	.st88{fill:#E45544;}
	.st89{fill:#80C431;}
	.st90{fill:#99CE46;}
	.st91{fill:#72B42E;}
	.st92{fill:#C64C46;}
	.st93{fill:#EA726C;}
	.st94{fill:none;stroke:#31352E;stroke-width:6;stroke-linejoin:round;stroke-miterlimit:10;}
	.st95{fill:#D2CBB0;}
	.st96{fill:#C46E35;}
	.st97{fill:#D07C43;}
	.st98{fill:none;stroke:#F4CA19;stroke-width:6;stroke-linecap:round;stroke-miterlimit:10;}
	.st99{fill:#FFF1F0;}
	.st100{fill:#FD8779;}
	.st101{fill:#F8CC9F;}
	.st102{fill:#ECB24B;}
	.st103{fill:#FBCB46;}
	.st104{fill:#EFF2F3;}
	.st105{fill:#DADEDF;}
	.st106{fill:#D45947;}
	.st107{fill:#F1786B;}
	.st108{fill:#336C80;}
	.st109{fill:#E77125;}
	.st110{fill:#C96635;}
	.st111{fill:#77B8E9;}
	.st112{fill:#E2C72B;}
	.st113{fill:#EFD410;}
	.st114{fill:#E4E4E4;}
	.st115{fill:#F86F3B;}
	.st116{fill:#FB8B47;}
	.st117{fill:#F87A40;}
	.st118{fill:#FEA852;}
	.st119{fill:none;stroke:#FFFFFF;stroke-width:6;stroke-linecap:round;stroke-linejoin:round;stroke-miterlimit:10;}
	.st120{fill:#FFAC3E;}
	.st121{fill:#DBDBDB;}
	.st122{fill:#7E4927;}
	.st123{fill:#64371F;}
	.st124{fill:#9C6741;}
	.st125{fill:#EE1F25;}
	.st126{fill:#ED5F77;}
	.st127{fill:#CB1D21;}
	.st128{fill:#842424;}
	.st129{fill:#FFE04A;}
	.st130{fill:#F2D040;}
	.st131{fill:#FFEA94;}
	.st132{fill:#E5E5E5;}
	.st133{fill:#A5A5A5;}
	.st134{fill:#FFB600;}
	.st135{fill:#FFC213;}
	.st136{fill:#FFCD26;}
	.st137{fill:#FFD939;}
	.st138{fill:#EEA218;}
	.st139{fill:#D78619;}
	.st140{fill:#FFC736;}
	.st141{fill:#FAF5E5;}
	.st142{fill:#D8CCB8;}
	.st143{fill:#F1D3A1;}
	.st144{fill:#F7EAD5;}
	.st145{fill:#4CAF50;}
	.st146{fill:#529E52;}
	.st147{fill:none;stroke:#9172C1;stroke-width:6;stroke-linecap:round;stroke-miterlimit:10;}
	.st148{fill:#513B72;}
	.st149{fill:#841439;}
	.st150{fill:#81AD02;}
	.st151{fill:#7AAC2F;}
	.st152{fill:#679E29;}
	.st153{fill:#4CBF0A;}
	.st154{fill:#48AF05;}
	.st155{fill:#339A01;}
	.st156{fill:#107400;}
	.st157{fill:#7DD841;}
	.st158{fill:#CA793B;}
	.st159{fill:#47B216;}
	.st160{fill:#63C127;}
	.st161{fill:#F7F7FA;}
	.st162{fill:#D2D2D2;}
	.st163{fill:none;stroke:#FFFFFF;stroke-width:6;stroke-linecap:round;stroke-miterlimit:10;}
	.st164{fill:#996528;}
	.st165{fill:#F5D542;}
	.st166{fill:#F4CD42;}
	.st167{fill:#F3C642;}
	.st168{fill:#F1BE43;}
	.st169{fill:#F0B743;}
	.st170{fill:#EFAF43;}
	.st171{fill:#FBF1C6;}
	.st172{fill:#BCBDC2;}
	.st173{fill:#A02A2A;}
	.st174{fill:#B64A4A;}
	.st175{fill:#FBE868;}
	.st176{fill:#F2D630;}
	.st177{fill:#FAE100;}
	.st178{fill:#FFFBD8;}
	.st179{fill:#EFE8BD;}
	.st180{fill:#FFFDF3;}
	.st181{fill:#EFE7C5;}
	.st182{fill:#EB4675;}
	.st183{fill:#C1D83C;}
	.st184{fill:#FF5F94;}
	.st185{fill:#E0AF74;}
	.st186{fill:#F9C68F;}
	.st187{fill:#EB5637;}
	.st188{fill:#CA1700;}
	.st189{fill:#6E9E43;}
	.st190{fill:#E6D6B3;}
	.st191{fill:#9B1E0A;}
	.st192{fill:#7C1D13;}
	.st193{fill:#FF9F2C;}
	.st194{fill:#FF8812;}
	.st195{fill:#DEDEDE;}
	.st196{fill:#D1D1D1;}
	.st197{fill:#D3D0C9;}
	.st198{fill:#ADA392;}
	.st199{fill:#4C4442;}
	.st200{fill:#D8C094;}
	.st201{fill:#A65AA8;}
	.st202{fill:#954C9B;}
	.st203{fill:#B980BC;}
	.st204{fill:#EAD8C9;}
	.st205{fill:#D3BDAA;}
	.st206{fill:#FFF3E6;}
	.st207{fill:#E2DEE1;}
	.st208{fill:#E8E097;}
	.st209{fill:#FFFF01;}
	.st210{fill:#F4E028;}
	.st211{fill:#722131;}
	.st212{fill:#F9DD9D;}
	.st213{fill:#46D2E0;}
	.st214{fill:#DA2E2C;}
	.st215{fill:#E24444;}
	.st216{fill:#D7DFE2;}
	.st217{fill:none;stroke:#F9BDBD;stroke-width:4;stroke-linecap:round;stroke-linejoin:round;stroke-miterlimit:10;}
	.st218{fill:#ED4C5C;}
	.st219{fill:#CA5231;}
	.st220{fill:#B54A31;}
	.st221{fill:#E92F34;}
	.st222{fill:#EFEED2;}
	.st223{fill:#D81D2A;}
	.st224{fill:#EA6877;}
	.st225{fill:#A8CE3B;}
	.st226{fill:#A1BF34;}
	.st227{fill:#F25F98;stroke:#31352E;stroke-width:6;stroke-linecap:round;stroke-miterlimit:10;}
	.st228{fill:#C1DC77;}
	.st229{fill:#7844AA;stroke:#7844AA;stroke-miterlimit:10;}
	.st230{fill:#D6B05C;}
	.st231{fill:#CCA556;}
	.st232{fill:none;}
	.st233{fill:#FFECF0;}
	.st234{fill:#EA4B54;}
	.st235{fill:none;stroke:#FFBC6E;stroke-width:6;stroke-miterlimit:10;}
	.st236{fill:#E24733;}
	.st237{fill:#ED7970;}
	.st238{fill:#BF311B;}
	.st239{fill:#D23620;}
	.st240{fill:#ECECEC;}
	.st241{fill:#EDA118;}
	.st242{fill:#D68519;}
	.st243{fill:#FFC636;}
	.st244{fill:#FDCC53;}
</style><path class="st84" d="M20,87.8C34.4,98.7,56.4,94,69.3,77.1s19.7-50,5.4-60.9s-44.5,4.4-57.3,21.3  S5.7,76.9,20,87.8z" id="XMLID_1578_"/><path class="st85" d="M82.5,41.5c-1,12.6-6.2,26.5-13.2,35.6C57.2,93,37,98.1,22.7,89.6c-0.9-0.5-1.8-1.1-2.7-1.8  C5.7,76.9,4.5,54.3,17.3,37.5c12.8-16.8,43-32.2,57.3-21.3C81.2,21.2,83.4,30.9,82.5,41.5z" id="XMLID_1605_"/><path class="st86" d="M80.8,24.9C80.8,24.9,80.8,24.9,80.8,24.9c-1,9.7-8.6,17.3-18.1,18.8  c-1.3,0.2-2.5,0.4-3.5,0.7C38.9,49.6,24.9,66,23.8,83.6c-0.1,2.3-2.2,4-4.4,3.6l0,0c0,0,0,0,0,0c5.4,4.4,12.1,6.5,18.9,6.5  c0.1,0,0.2,0,0.3,0c0,0,0,0,0,0c11.1,0.1,22.9-5.6,31-16.2c6.8-9,11.9-22.6,12.9-34.9c0,0-0.1,0-0.1,0C83,36.1,82.6,30,80.8,24.9z" id="XMLID_1579_"/><path class="st87" d="M20,87.8C34.4,98.7,56.4,94,69.3,77.1s19.7-50,5.4-60.9s-44.5,4.4-57.3,21.3  S5.7,76.9,20,87.8z" id="XMLID_1575_"/><path class="st84" d="M30.4,93c4.7,18.1,25.8,28.3,47,22.8c21.3-5.5,48.1-28.2,43.4-46.3  c-4.7-18.1-39.2-24.8-60.4-19.3S25.7,74.8,30.4,93z" id="XMLID_1574_"/><path class="st85" d="M30.4,93c4.7,18.1,25.8,28.3,47,22.8c21.3-5.5,48.1-28.2,43.4-46.3  c-4.7-18.1-39.2-24.8-60.4-19.3S25.7,74.8,30.4,93z" id="XMLID_1573_"/><path class="st101" d="M47.9,65.5c1,2.1,5.4,2.1,9.7,0s9.7-6.9,8.7-9c-1-2.1-8.1-0.8-12.4,1.4  C49.5,60,46.8,63.4,47.9,65.5z" id="XMLID_1586_"/><path class="st101" d="M25,40.4c1.2,1.4,4.9,0.3,8.2-2.6c3.3-2.8,7.1-8,5.9-9.5s-7,1.5-10.3,4.3S23.7,39,25,40.4z" id="XMLID_1590_"/><path class="st86" d="M30.2,92c11.2,12.1,30.4,17.6,49.8,12.5c13.7-3.6,29.2-12.8,40.2-24  c-5,15.3-25.7,30.8-42.8,35.3c-21.3,5.5-42.3-4.7-47-22.8C30.3,92.6,30.3,92.3,30.2,92z" id="XMLID_1553_"/><path class="st87" d="M30.4,93c4.7,18.1,25.8,28.3,47,22.8c21.3-5.5,48.1-28.2,43.4-46.3  c-4.7-18.1-39.2-24.8-60.4-19.3S25.7,74.8,30.4,93z" id="XMLID_1552_"/></svg>
