<?xml version="1.0" standalone="no"?>
<!DOCTYPE svg PUBLIC "-//W3C//DTD SVG 20010904//EN"
 "http://www.w3.org/TR/2001/REC-SVG-20010904/DTD/svg10.dtd">
<svg version="1.0" xmlns="http://www.w3.org/2000/svg"
 width="512.000000pt" height="512.000000pt" viewBox="0 0 512.000000 512.000000"
 preserveAspectRatio="xMidYMid meet">
<metadata>
Created by potrace 1.11, written by Peter Selinger 2001-2013
</metadata>
<g transform="translate(0.000000,512.000000) scale(0.100000,-0.100000)"
fill="#000000" stroke="none">
<path d="M2420 5101 c-382 -84 -764 -394 -1075 -871 -354 -542 -590 -1208
-646 -1823 -14 -152 -6 -466 16 -607 60 -390 209 -759 425 -1049 284 -383 657
-628 1100 -723 154 -33 457 -33 617 0 510 103 948 430 1250 933 152 254 258
558 310 889 25 158 24 578 0 765 -40 299 -132 667 -235 941 -315 832 -795
1392 -1317 1534 -115 32 -328 37 -445 11z m345 -136 c213 -37 443 -172 638
-374 436 -452 763 -1199 874 -1991 25 -179 24 -581 -1 -740 -22 -139 -73 -345
-115 -460 -48 -131 -164 -359 -237 -467 -277 -409 -645 -669 -1081 -765 -131
-29 -410 -31 -552 -4 -556 104 -1026 505 -1275 1090 -249 583 -245 1242 14
2001 223 653 589 1214 980 1499 253 186 501 255 755 211z"/>
<path d="M2294 4066 c-105 -26 -218 -116 -270 -217 -24 -46 -29 -66 -29 -134
0 -119 37 -189 168 -319 l99 -98 -30 -42 c-38 -53 -78 -132 -138 -276 -234
-560 -594 -961 -944 -1050 -46 -12 -91 -25 -98 -29 -8 -5 158 -82 440 -206
669 -292 624 -266 928 -533 193 -169 539 -447 547 -439 8 9 -11 170 -52 437
-60 392 -64 597 -15 776 25 93 217 595 233 610 6 7 120 62 252 122 132 61 239
113 238 117 -1 3 -107 74 -234 158 -219 144 -233 154 -244 192 -6 22 -22 59
-34 83 -16 32 -18 42 -7 42 7 0 50 18 94 40 98 49 179 126 218 207 25 51 29
69 29 148 0 83 -3 96 -34 160 -40 82 -124 171 -191 203 -118 57 -243 50 -404
-20 l-69 -30 -74 37 c-137 67 -266 88 -379 61z m533 -741 c102 -45 191 -160
209 -267 6 -36 15 -43 171 -145 90 -58 160 -110 156 -114 -4 -4 -78 -40 -163
-80 -85 -39 -160 -76 -167 -83 -11 -11 -83 -192 -191 -482 -75 -199 -93 -281
-99 -455 -6 -149 4 -277 43 -527 14 -90 24 -166 22 -168 -5 -4 -247 197 -409
341 -146 130 -184 158 -298 214 -71 36 -631 286 -699 312 -22 8 -16 14 65 68
309 208 554 539 758 1024 69 165 112 234 188 304 82 74 138 94 257 90 78 -3
107 -9 157 -32z"/>
<path d="M2624 3150 c-27 -11 -72 -65 -80 -96 -17 -68 22 -142 88 -169 54 -21
98 -13 143 26 79 70 66 187 -25 234 -31 16 -93 19 -126 5z"/>
</g>
</svg>
